<svg width="55" height="55" viewBox="0 0 55 55" fill="none" xmlns="http://www.w3.org/2000/svg">
<g id="Component 11">
<circle id="Ellipse 1" cx="27.5" cy="27.5" r="27.5" fill="white"/>
<path id="Vector" d="M11 47C11 42.7565 12.7384 38.6869 15.8327 35.6863C18.9271 32.6857 23.1239 31 27.5 31C31.8761 31 36.0729 32.6857 39.1673 35.6863C42.2616 38.6869 44 42.7565 44 47H39.875C39.875 43.8174 38.5712 40.7652 36.2504 38.5147C33.9297 36.2643 30.7821 35 27.5 35C24.2179 35 21.0703 36.2643 18.7496 38.5147C16.4288 40.7652 15.125 43.8174 15.125 47H11ZM27.5 29C20.6628 29 15.125 23.63 15.125 17C15.125 10.37 20.6628 5 27.5 5C34.3372 5 39.875 10.37 39.875 17C39.875 23.63 34.3372 29 27.5 29ZM27.5 25C32.0581 25 35.75 21.42 35.75 17C35.75 12.58 32.0581 9 27.5 9C22.9419 9 19.25 12.58 19.25 17C19.25 21.42 22.9419 25 27.5 25Z" fill="black"/>
</g>
</svg>
